Bad Teacher {2011} Unrated 720p BRRip x264 - Kickassddl

ENCODED by Mr. KickASS


Video
Format profile: High@L4.1
Duration: 1h 37mn
Bit rate: 870 Kbps
Maximum bit rate: 7 794 Kbps
Width: 1 280 pixels
Height: 696 pixels
Stream size: 606 MiB 


Audio
Format: AAC
Format/Info: Advanced Audio Codec
Format profile: LC
Bit rate: 128 Kbps
Maximum bit rate: 134 Kbps
Channel(s): 2 channels
Channel positions: Front: L R
Sampling rate: 48.0 KHz
Compression mode: Lossy
Stream size: 89.4 MiB